<svg width="21" height="19" viewBox="0 0 21 19" fill="none" xmlns="http://www.w3.org/2000/svg">
<g clip-path="url(#clip0_5_1087)">
<path d="M11.1246 0.713523C11.1766 0.655523 11.1576 0.483523 11.1656 0.436523C11.0736 0.606523 11.1276 0.762523 11.1246 0.713523Z" fill="#FBED81"/>
<path d="M10.3355 2.32837L10.2725 2.71137L10.3425 2.43037L10.3355 2.32837Z" fill="#FBED81"/>
<path d="M10.0198 3.04798L10.0698 3.08398L10.0328 2.72998C9.87184 3.04198 9.74684 3.55298 9.58984 3.66198C9.82384 3.84198 9.83084 3.16098 10.0198 3.04798Z" fill="#FBED81"/>
<path d="M8.87047 3.62988C8.85739 3.63318 8.84396 3.63486 8.83047 3.63488C8.80074 3.68308 8.76731 3.72888 8.73047 3.77188C8.84747 3.82888 8.70847 4.02188 8.87047 3.62988Z" fill="#FBED81"/>
<path d="M8.82864 3.63504C8.69864 3.64504 8.91664 3.47904 8.82864 3.63504V3.63504Z" fill="#FBED81"/>
<path d="M8.46042 4.37954L8.49542 4.09654C8.41742 4.08054 8.29542 4.24854 8.29542 4.14154C8.21642 4.39754 8.30242 4.40454 8.46042 4.37954Z" fill="#FBED81"/>
<path d="M8.55376 4.60081C8.52076 4.59581 8.49576 4.61481 8.53376 4.73381L8.55376 4.60081Z" fill="#FBED81"/>
<path d="M8.58171 4.47745C8.64371 4.56545 8.59771 4.45645 8.60171 4.31445L8.55371 4.60145C8.60571 4.61045 8.68871 4.68645 8.58171 4.47745Z" fill="#FBED81"/>
<path d="M8.89901 4.35255C9.07501 3.96355 8.89901 3.82455 8.70801 4.22955C8.82301 4.17855 8.93001 4.08055 8.89901 4.35255Z" fill="#FBED81"/>
<path d="M9.73557 4.02483L9.85357 3.98583V3.77783C9.85557 3.88483 9.67657 3.94183 9.73557 4.02483Z" fill="#FBED81"/>
<path d="M7.91479 5.58887V5.86787C8.02079 5.68287 7.99079 5.61987 7.91479 5.58887Z" fill="#FBED81"/>
<path d="M8.7927 5.02186C8.78736 4.85386 8.78736 4.68186 8.7927 4.50586C8.7767 4.70586 8.7667 4.89786 8.7627 5.08686L8.7927 5.02186Z" fill="#FBED81"/>
<path d="M8.39149 5.20923L8.22949 5.48823L8.30449 5.38823L8.39149 5.20923Z" fill="#FBED81"/>
<path d="M7.79588 5.4862C7.77397 5.50477 7.74764 5.51739 7.71944 5.52282C7.69124 5.52825 7.66211 5.52631 7.63487 5.5172C7.68987 5.5682 7.83487 5.5532 7.91787 5.5892L7.92487 5.3982C7.89187 5.4172 7.85287 5.4472 7.81287 5.4742C7.85087 5.3382 7.66887 5.2742 7.73987 5.1792C7.60678 5.2459 7.4962 5.35021 7.42188 5.4792C7.4776 5.44238 7.54318 5.42334 7.60996 5.42459C7.67674 5.42584 7.74157 5.44732 7.79588 5.4862Z" fill="#FBED81"/>
<path d="M7.26953 5.658C7.32671 5.60419 7.3777 5.54415 7.42153 5.479C7.35819 5.52663 7.30626 5.58778 7.26953 5.658Z" fill="#FBED81"/>
<path d="M7.43359 6.28418L7.65659 6.29218L7.70059 6.21018C7.65342 6.20014 7.60452 6.20163 7.55804 6.21451C7.51156 6.22739 7.46887 6.25129 7.43359 6.28418Z" fill="#FBED81"/>
<path d="M7.65452 6.29199L7.60352 6.38199H7.60952L7.66152 6.29599L7.65452 6.29199Z" fill="#FBED81"/>
<path d="M7.71095 6.18921L7.69995 6.21021C7.72195 6.21121 7.72995 6.20921 7.71095 6.18921Z" fill="#FBED81"/>
<path d="M8.3694 5.43604C8.37407 5.54121 8.39051 5.64552 8.4184 5.74704C8.42324 5.7578 8.42892 5.76817 8.4354 5.77804L8.1174 6.00904C8.0684 5.99104 7.9974 5.98204 7.9814 5.90204V6.10204L7.6084 6.37303V6.37903L7.9854 6.10503V6.20504L8.1344 6.01203L8.1204 6.00704L8.4374 5.77704C8.4724 5.83004 8.5314 5.85003 8.6374 5.79603C8.5654 5.63603 8.4134 5.71704 8.3694 5.43604Z" fill="#FBED81"/>
<path d="M7.98981 6.34523V6.20923L7.93481 6.28123L7.98981 6.34523Z" fill="#FBED81"/>
<path d="M7.73836 5.95949C7.74636 5.89449 7.78136 5.77249 7.65436 5.79949C7.581 5.88259 7.4802 5.93654 7.37036 5.95149C7.49178 5.97415 7.61608 5.97685 7.73836 5.95949Z" fill="#FBED81"/>
<path d="M8.10491 5.78662L8.08691 5.80062C8.10191 5.81562 8.11191 5.81962 8.10491 5.78662Z" fill="#FBED81"/>
<path d="M6.27441 6.10452L6.29741 6.13852V6.10352L6.27441 6.10452Z" fill="#FBED81"/>
<path d="M7.76299 5.9894C7.86299 6.0154 7.90499 5.9584 7.94699 5.8894C7.88039 5.92106 7.80971 5.94327 7.73699 5.9554C7.73499 5.9854 7.73599 6.0044 7.76299 5.9894Z" fill="#FBED81"/>
<path d="M6.97778 5.7967C7.03151 5.832 7.08883 5.8615 7.14878 5.8847C7.09478 5.8277 6.98678 5.7417 6.97778 5.7967Z" fill="#FBED81"/>
<path d="M8.04775 5.74962L8.05974 5.73862C8.02474 5.69962 8.03075 5.72062 8.04775 5.74962Z" fill="#FBED81"/>
<path d="M8.04824 5.74951C8.00795 5.79079 7.97422 5.83801 7.94824 5.88951C7.99892 5.86726 8.04582 5.83723 8.08724 5.80051C8.07219 5.78519 8.05909 5.76806 8.04824 5.74951Z" fill="#FBED81"/>
<path d="M6.6929 6.10147L6.7739 6.06547C6.64728 6.02585 6.53342 5.95339 6.4439 5.85547C6.3159 5.96747 6.2969 6.04047 6.2959 6.10447L6.7169 6.06947L6.6929 6.10147Z" fill="#FBED81"/>
<path d="M7.15539 6.0096C7.11839 6.2226 6.92739 6.3386 7.08439 6.5396C7.33139 6.4896 7.23439 6.3446 7.37039 6.2396C6.97539 6.3486 7.47039 6.1096 7.16239 6.0396C7.22743 6.00077 7.29786 5.97179 7.37139 5.9536C7.29588 5.94017 7.22187 5.91941 7.15039 5.8916L7.16139 5.9026C7.18239 5.9256 7.19039 5.9406 7.16939 5.9286C7.16939 5.9286 7.16339 5.9286 7.16139 5.9336C7.16234 5.96012 7.15999 5.98666 7.15439 6.0126C7.03239 5.9876 7.12839 5.9636 7.16139 5.9336V5.9026L6.77539 6.0716C6.90502 6.07812 7.03455 6.05699 7.15539 6.0096Z" fill="#FBED81"/>
<path d="M8.89756 6.25033C8.8811 6.25091 8.86491 6.24599 8.85156 6.23633C8.86056 6.27433 8.87056 6.29233 8.89756 6.25033Z" fill="#FBED81"/>
<path d="M8.24063 6.28905L8.19263 6.27905C8.19463 6.28805 8.21363 6.29005 8.24063 6.28905Z" fill="#FBED81"/>
<path d="M8.24048 6.28825C8.3964 6.32684 8.55697 6.34334 8.71748 6.33725C8.70648 6.29525 8.64848 6.22925 8.71148 6.15025C8.80148 6.10525 8.79348 6.20425 8.85248 6.23625C8.83248 6.15525 8.82448 5.96525 8.65248 6.08225L8.66248 6.12425C8.53729 6.21252 8.39242 6.26882 8.24048 6.28825Z" fill="#FBED81"/>
<path d="M8.14229 6.375L7.82129 6.523L8.02129 6.674L7.99729 6.574C8.19029 6.583 8.13029 6.459 8.14229 6.375Z" fill="#FBED81"/>
<path d="M6.23301 5.78857L6.08301 6.11957L6.21901 6.00957L6.23301 5.78857Z" fill="#FBED81"/>
<path d="M5.77969 5.91064L5.67969 6.03964L5.78969 6.09864L5.77969 5.91064Z" fill="#FBED81"/>
<path d="M5.28712 13.8568L5.49812 13.8478C5.48905 13.8057 5.4908 13.7619 5.50322 13.7207C5.51563 13.6794 5.53831 13.6419 5.56912 13.6118C5.37112 13.7208 5.07512 13.8388 5.28712 13.8568Z" fill="#FBED81"/>
<path d="M3.35742 9.60353C3.37833 9.7152 3.42527 9.82038 3.49442 9.91053C3.46842 9.72053 3.50542 9.50853 3.35742 9.60353Z" fill="#FBED81"/>
<path d="M14.6963 17.6818C14.723 17.6836 14.7497 17.6779 14.7734 17.6654C14.7971 17.6529 14.8168 17.634 14.8303 17.6108C14.7583 17.6128 14.7083 17.6308 14.6963 17.6818Z" fill="#FBED81"/>
<path d="M3.75314 10.1622C3.75314 10.1322 3.74314 10.1102 3.74014 10.0812C3.645 10.0459 3.56036 9.98704 3.49414 9.91016C3.51314 10.0512 3.56514 10.1792 3.75314 10.1622Z" fill="#FBED81"/>
<path d="M12.0008 2.15474C11.9771 2.09839 11.9396 2.04888 11.8918 2.01074C11.9321 2.05566 11.9685 2.10382 12.0008 2.15474Z" fill="#FBED81"/>
<path d="M4.02637 6.25925C4.03737 6.23425 4.11637 6.23225 4.02637 6.25925V6.25925Z" fill="#FBED81"/>
<path d="M4.17876 6.33597C4.13886 6.31526 4.09603 6.30076 4.05176 6.29297C4.09197 6.31294 4.13469 6.3274 4.17876 6.33597Z" fill="#FBED81"/>
<path d="M4.14551 6.24324L4.22951 6.25124C4.23551 6.21524 4.22251 6.19224 4.14551 6.24324Z" fill="#FBED81"/>
<path d="M3.89941 6.29414C3.94964 6.28464 4.00119 6.28464 4.05141 6.29414C4.03141 6.28314 4.02241 6.27214 4.02641 6.26514L3.89941 6.29414Z" fill="#FBED81"/>
<path d="M19.5052 8.16687C19.5799 8.18859 19.6593 8.18859 19.734 8.16687L20.4922 7.96709L19.3843 7.09005C19.0057 6.79038 18.0856 6.8673 17.9648 6.72046C17.8435 6.78689 17.7094 6.82653 17.5716 6.8367C17.4337 6.84687 17.2952 6.82733 17.1656 6.7794C17.2305 6.84632 17.2295 7.15798 16.9818 7.07907C17.1666 6.46274 16.5572 6.73844 16.4183 6.25497C16.5572 6.58261 15.6861 6.22401 15.9118 6.69349C15.712 6.61158 15.9338 6.45575 15.7949 6.28394C15.2565 6.45475 14.709 5.96429 14.0747 5.9563C14.0617 6.00625 14.0837 6.07917 14.0747 6.15608C14.0687 6.15608 14.0627 6.15608 14.0557 6.14709C13.8684 5.44805 13.5478 4.79174 13.1116 4.21422C12.6665 3.54555 12.3234 2.81433 12.0937 2.04461C12.1606 2.36226 12.0817 2.26936 12.0007 2.15349C12.0427 2.27036 11.9488 2.35327 11.9308 2.47713C11.8589 2.21076 11.7776 1.94671 11.6871 1.685C11.5872 1.90776 11.3494 1.19354 11.3034 1.44427L11.3974 1.54416C11.3423 1.78377 11.3423 2.03274 11.3974 2.27236L11.1716 1.81386L8.6601 6.90226L6.96879 7.14799C6.98026 7.14676 6.9909 7.14144 6.99876 7.13301L6.97579 7.03312C6.8689 7.05509 6.80696 7.13301 6.87589 7.16597L6.57619 7.20992C6.73303 7.02513 6.52124 6.45575 6.30246 6.14609C6.30846 6.228 6.31945 6.30292 6.12864 6.44576C6.21555 6.53666 6.62014 6.61757 6.47129 6.81136C6.21255 6.94721 6.23753 6.7784 6.09068 6.69848C6.22055 6.88927 5.89088 7.0471 5.89088 7.31281L4.23054 7.55454C4.23443 7.53969 4.23446 7.52409 4.23061 7.50923C4.22676 7.49436 4.21917 7.48073 4.20856 7.46964L4.06071 7.52757C3.88988 7.34477 4.30846 7.20393 4.10067 7.137C4.28649 6.96319 4.48429 6.70448 4.79098 6.7774L4.89088 7.05809C4.87769 7.03374 4.85905 7.01278 4.83641 6.99682C4.81378 6.98086 4.78777 6.97034 4.76041 6.96609C4.73305 6.96184 4.70507 6.96396 4.67866 6.97229C4.65225 6.98063 4.62813 6.99495 4.60816 7.01414C4.70806 6.8683 5.10766 7.33978 5.18758 6.94321L4.95482 6.7734C5.14063 6.5976 5.35441 6.25497 5.62314 6.30891C5.4643 6.04121 5.5682 6.34987 5.33743 6.04321C5.55621 6.43477 4.67709 6.12212 4.99478 6.51968C4.75102 6.16008 4.64612 6.40281 4.35342 6.10913C4.3744 6.20303 4.4663 6.27795 4.24353 6.26296C4.23575 6.29462 4.224 6.32516 4.20856 6.35386H4.19258L4.20657 6.36385C4.19857 6.37984 4.19857 6.38183 4.20657 6.36385C4.26135 6.39376 4.30668 6.4384 4.33743 6.49271C4.26151 6.72645 3.91686 6.76941 3.81796 6.90026C3.68309 6.87329 3.85592 6.78339 3.771 6.69149L3.62215 6.88628C3.5742 6.67851 3.23054 6.58661 3.51426 6.41679L3.24153 6.44676C3.12281 6.38047 2.98506 6.35652 2.85092 6.37884L0.0637207 6.99416L2.09368 8.70827C2.1321 8.74205 2.17853 8.76544 2.22855 8.7762C2.28949 8.90006 2.62815 8.83513 2.42835 8.87609L2.82795 9.08186L2.79298 9.12282C3.0787 9.43847 3.66611 9.48042 3.74503 10.0947C3.91943 10.151 4.06837 10.2671 4.16561 10.4224L4.06571 10.5872C4.24153 10.6691 4.33144 11.1046 4.52225 11.0217C4.32245 11.5162 5.08468 11.721 5.25451 12.0096L5.43134 11.8458C5.54271 11.9579 5.67289 12.0495 5.81595 12.1165C5.66111 12.4801 6.10866 12.9646 5.765 13.2493C5.7905 13.2876 5.80017 13.3342 5.79197 13.3795C5.78377 13.4248 5.75835 13.4651 5.72105 13.492C5.72156 13.4825 5.71912 13.4731 5.71405 13.465C5.70935 13.4783 5.706 13.492 5.70406 13.506C5.66111 13.544 5.61116 13.5819 5.5682 13.6259C5.61792 13.6005 5.66288 13.5667 5.70107 13.526C5.69212 13.6348 5.70227 13.7443 5.73104 13.8496L5.49727 13.8596V13.8876C5.39737 13.9875 5.58818 13.9965 5.769 13.9655C5.79509 14.0297 5.83229 14.0889 5.87889 14.1403C5.49927 14.1703 5.94982 14.4629 5.54023 14.5219C5.71605 14.6318 5.58318 15.1212 5.97179 15.2531C5.91885 15.2531 5.88788 15.278 5.89587 15.2151C5.82794 15.336 5.76101 15.4558 5.85391 15.5897H5.55421L5.89188 15.9353C5.69208 16.0752 5.57419 16.1281 5.38339 15.9213C5.65311 16.3868 5.45431 16.2739 5.73204 16.6775L5.54922 16.6286C5.53523 16.7534 5.74902 16.9942 5.58318 17.0421C5.53275 17.0709 5.48993 17.1113 5.45831 17.16L4.90686 17.9591L6.45831 17.8822C6.90686 17.8602 7.63912 17.2469 8.33542 17.2099C7.95381 16.7844 8.74701 17.2738 8.57319 16.8803C8.67309 16.9802 8.79496 16.9962 8.74401 17.151C9.00975 16.8663 9.32943 17.0781 9.38637 16.6395C9.48627 16.7394 9.40635 16.8453 9.47528 16.8973C9.48827 16.8583 9.52523 16.7414 9.59616 16.7974C9.66709 16.8533 9.59616 16.9202 9.57418 16.9972C9.89686 16.8024 9.74201 16.4278 9.59017 16.0792C9.84291 16.1491 9.91484 16.0792 9.92083 15.7985C10.0377 15.8774 10.1956 15.9403 10.0087 16.0892C10.1336 16.0442 10.8079 15.8764 10.6741 15.6017C10.746 15.6506 10.8469 15.5358 10.8609 15.4888C11.0043 15.4329 11.1447 15.3696 11.2815 15.299C11.5642 15.6486 11.5102 15.2581 11.8169 15.7395L11.8979 15.5238C12.1696 15.1132 12.1776 15.9973 12.5352 15.9743L12.4982 15.8075C12.724 15.7375 12.5981 16.6156 12.722 16.7474C12.735 16.8024 12.6391 16.7814 12.5792 16.7854C12.8339 17.2459 12.768 16.5476 13.0907 16.6395C13.0697 16.8104 12.8309 16.9662 13.0127 17.095C13.0497 17.2609 13.8229 16.9292 13.9458 17.3438C13.9458 17.2029 13.9458 17.0621 14.1226 17.0511C14.3494 17.121 14.4633 17.7593 14.8319 17.5116C14.8418 17.5467 14.839 17.5842 14.8239 17.6175C15.0287 17.6105 15.4153 17.7383 15.6091 17.6005C15.5362 17.8562 15.6381 17.9621 15.7949 18.013L17.5142 18.5674L17.0027 17.136C16.8908 16.8223 16.4613 16.4667 16.9408 16.3868L16.8099 15.8524H16.8858C16.8882 15.7311 16.8502 15.6125 16.7779 15.515C16.7056 15.4176 16.603 15.3469 16.4862 15.314C16.5212 15.2251 16.5981 15.273 16.6371 15.273C16.695 14.7436 16.6561 14.6977 16.2265 14.3351L16.4513 14.2512C16.2964 14.1593 16.69 13.458 16.3344 13.0095C16.3756 13.0075 16.4161 13.0207 16.4483 13.0465C16.1126 12.581 16.73 11.7659 16.1776 11.5801C16.3034 11.4862 16.4233 11.3803 16.5222 11.4902C17.1875 10.811 18.0207 10.3415 18.6741 9.73414L18.3584 9.55734L18.5941 9.35756C18.709 9.35756 18.8629 9.47543 18.694 9.62027C18.9148 9.6802 18.8449 9.24268 18.7939 9.18375C19.2025 8.98397 18.9558 9.5923 19.0567 9.5054L19.1676 9.36056H19.1096C19.1156 9.16078 19.0197 9.03991 19.2215 8.8611C19.3913 8.79318 19.4333 8.955 19.4902 8.91804C19.5072 8.93602 19.5312 8.92903 19.5702 8.85411L19.8699 8.60239L19.5702 8.51449C19.6081 8.29273 19.8519 8.26376 19.5052 8.16687ZM6.2615 12.587L6.42834 12.5391L6.30346 12.2114C6.4623 12.3193 6.69207 12.5031 6.92584 12.7029L6.84192 13.1943C6.59713 13.048 6.39655 12.8382 6.2615 12.587ZM6.13263 10.8889C6.14348 10.8526 6.16111 10.8187 6.18458 10.789L6.42234 11.0217L6.17459 11.2854L6.45531 11.0547L6.68908 11.2814C6.55784 11.4241 6.41145 11.5521 6.25251 11.663L6.20956 11.5292L6.18059 11.5831C6.13184 11.3541 6.11569 11.1194 6.13263 10.8859V10.8889ZM14.0707 6.17306C14.0656 6.19706 14.0558 6.21982 14.0419 6.24005C14.0281 6.26027 14.0103 6.27756 13.9898 6.29093L13.8109 5.98427L14.0707 6.17306ZM6.54122 7.20892L6.19157 7.25987C6.21078 7.23325 6.23508 7.21071 6.26307 7.19356C6.29106 7.17642 6.32218 7.165 6.35462 7.15999C6.38706 7.15497 6.42017 7.15644 6.45203 7.16433C6.4839 7.17222 6.51387 7.18636 6.54023 7.20593L6.54122 7.20892ZM6.11965 7.25687V7.27085H6.09567L6.11965 7.25687ZM3.04273 6.5976L3.03674 6.60958C2.8729 6.54066 2.93084 6.56863 3.04173 6.5956L3.04273 6.5976ZM3.43034 8.92903C3.11866 8.76321 3.50627 8.64035 3.42435 8.64035C3.06171 8.19983 2.64913 8.64035 2.43834 8.33468L1.36841 6.7734L2.91586 6.8643C2.96966 6.86896 3.02249 6.88141 3.0727 6.90126C3.31746 7.12402 3.15462 7.40071 3.22755 7.57852C3.16652 7.61172 3.09686 7.62566 3.02775 7.61847L2.85692 7.60049L2.9728 7.78829C3.05772 7.92513 3.04773 8.09894 3.14863 8.18785L3.06771 7.94012C3.19058 7.94012 3.36741 8.02303 3.38739 8.14589C3.38925 8.10619 3.381 8.06666 3.36341 8.03102L4.29348 8.93702C4.01294 9.03365 3.70758 9.03012 3.42934 8.92703L3.43034 8.92903ZM5.19058 10.1047C5.2434 10.0552 5.28203 9.99242 5.30247 9.92294L5.50227 10.1147C5.39791 10.1358 5.29002 10.1317 5.18758 10.1027L5.19058 10.1047ZM6.35541 16.0352L6.31645 16.265L5.93883 15.9653C6.07429 16.0038 6.21374 16.0266 6.35441 16.0332L6.35541 16.0352ZM9.58317 15.8794C9.52024 15.8564 9.50525 15.7465 9.50026 15.6057C9.48937 15.6384 9.48037 15.6718 9.47328 15.7056C9.44397 15.6986 9.41662 15.6851 9.39326 15.6661C9.36991 15.6471 9.35116 15.623 9.33842 15.5957L9.49726 15.5118V15.6117L9.53722 15.4928L9.60915 15.4548C9.68241 15.497 9.75813 15.5347 9.83592 15.5677L9.58317 15.8794ZM16.7879 16.1341C16.744 16.1685 16.7073 16.2113 16.6801 16.26L16.6661 16.222L16.7879 16.1341ZM15.7889 12.2554L15.772 12.2244L15.8918 11.8129C15.5002 12.1025 15.6841 11.4962 15.4423 11.5332C15.5422 11.3644 15.9748 11.3763 15.8419 11.5701L15.785 11.5651C15.8019 11.6019 15.8295 11.6327 15.8643 11.6534C15.8991 11.6741 15.9394 11.6837 15.9798 11.681L15.7889 12.2554ZM19.3783 8.83014C19.4313 8.6853 19.4453 8.75622 19.4643 8.83014H19.3783Z" fill="#FBED81"/>
<path d="M4.96639 6.02246L4.77539 6.11146C4.80882 6.10372 4.84363 6.10412 4.87687 6.11265C4.91011 6.12118 4.94082 6.13758 4.96639 6.16046C4.95439 6.10446 4.90439 6.03546 4.96639 6.02246Z" fill="#FBED81"/>
<path d="M5.53074 6.8027C5.53074 6.5297 5.39674 6.6387 5.26074 6.7487C5.30474 6.9377 5.42074 6.8547 5.55574 6.7987C5.5477 6.80146 5.53924 6.80281 5.53074 6.8027Z" fill="#FBED81"/>
<path d="M5.71616 6.76459C5.71616 6.65559 5.66016 6.74959 5.58716 6.78759C5.6281 6.77105 5.67203 6.76322 5.71616 6.76459Z" fill="#FBED81"/>
<path d="M3.74545 6.46423C3.81945 6.50323 3.75145 6.21423 3.80045 6.28623C3.83945 6.03223 3.40045 6.64523 3.74545 6.46423Z" fill="#FBED81"/>
<path d="M5.46608 7.3623L5.38108 7.1333L5.33008 7.3333L5.46608 7.3623Z" fill="#FBED81"/>
<path d="M4.3351 7.34897L4.5691 7.38197C4.5601 7.34297 4.5851 7.31597 4.6181 7.29297C4.4781 7.29997 4.3191 7.27997 4.3351 7.34897Z" fill="#FBED81"/>
<path d="M4.61621 7.29403C4.68098 7.29603 4.7439 7.2723 4.79121 7.22803C4.72935 7.23921 4.67005 7.26157 4.61621 7.29403Z" fill="#FBED81"/>
<path d="M3.86602 8.59754C3.78402 8.59754 3.69602 8.55554 3.66602 8.63854L3.89102 8.76254C3.96802 8.72154 3.95402 8.63854 3.86602 8.59754Z" fill="#FBED81"/>
<path d="M11.4949 1.11624L11.3799 0.844238L11.4479 1.11724L11.4949 1.11624Z" fill="#FBED81"/>
<path d="M11.256 1.14832L11.236 0.799316L11.166 0.977316C11.2147 1.02235 11.2464 1.0827 11.256 1.14832Z" fill="#FBED81"/>
</g>
<defs>
<clipPath id="clip0_5_1087">
<rect width="20.4375" height="18.125" fill="white" transform="translate(0.0546875 0.436035)"/>
</clipPath>
</defs>
</svg>
