<svg aria-hidden="true" style="position: absolute; width: 0; height: 0; overflow: hidden;" version="1.1" xmlns="http://www.w3.org/2000/svg" xmlns:xlink="http://www.w3.org/1999/xlink">
<defs>
<symbol id="icon-arrow-right" viewBox="0 0 37 32">
<path stroke-width="2.7817" stroke-miterlimit="10" stroke-linecap="butt" stroke-linejoin="round" d="M0.81 15.085c0.556 1.252 3.198 1.878 4.241 1.947 0.487 0.070 1.112-0.278 1.599-0.209 0.278 0.070 0.417 0.556 0.765 0.487 0.278 0 0.487-0.070 0.765-0.139 1.112-0.278 2.364-0.417 3.546-0.278 0.626 0.070 1.182-0.278 1.738-0.417 0.417-0.070 0.973 0.139 1.46 0.070 0.765-0.139 1.529 0.070 2.225 0 1.182-0.070 2.294-0.070 3.476-0.139 0.904-0.070 1.808 0.139 2.642 0.209s1.669 0.070 2.503 0.070 3.337-0.070 5.005-0.070"></path>
<path stroke-width="2.7817" stroke-miterlimit="10" stroke-linecap="butt" stroke-linejoin="round" d="M15.618 9.313c-0.069 0.487 0.069 1.043 0.417 1.391 1.043 0.904 2.155 1.739 3.337 2.364 0.348 0.209 0.765 0.348 1.112 0.348 0.139 0 0.695 0.278 0.765 0.278 0.487 0.139 0.348 0.070 0.765 0.139s0.904 0 1.321 0.070c0.139 0 0.278 0.070 0.417 0.070 0.348 0.069 0.626 0.069 0.973 0.139 0.070 0 0.139 0 0.209 0.070 0.070 0 0.139 0.069 0.209 0.139 0.070 0 0.209 0 0.278 0s0.209 0.070 0.278 0.139c0 0-0.070-0.069-0.070-0.139 2.294 0.556 4.519 0.695 6.813 1.043 0.487 0.070 1.39-0.278 1.877-0.209 1.251 2.295-0.626 1.391-1.182 1.182-0.139-0.070-0.278 0.070-0.417 0.209-0.070 0.070 0.487-0.139-0.556 0.209-0.139 0-0.626-0.278-0.765-0.278-0.556 0.209-0.278 0.556-0.834 0.765-0.348 0.139-1.251 0.556-1.599 0.556-1.877 0.209-3.546 0.278-5.284 0.904-0.904 0.348-1.738 0.417-2.642 0.695-0.209 0.070-0.417 0.139-0.695 0.139-0.139 0-0.278 0-0.417 0-1.738-0.139-3.128 1.252-4.797 1.669"></path>
</symbol>
<symbol id="icon-arrow-left" viewBox="0 0 37 32">
<path stroke-width="2.7817" stroke-miterlimit="10" stroke-linecap="butt" stroke-linejoin="round" d="M35.907 15.085c-0.556 1.252-3.198 1.878-4.241 1.947-0.487 0.070-1.112-0.278-1.599-0.209-0.278 0.070-0.417 0.556-0.765 0.487-0.278 0-0.487-0.070-0.765-0.139-1.112-0.278-2.364-0.417-3.546-0.278-0.626 0.070-1.182-0.278-1.738-0.417-0.417-0.070-0.973 0.139-1.46 0.070-0.765-0.139-1.529 0.070-2.225 0-1.182-0.070-2.294-0.070-3.476-0.139-0.904-0.070-1.808 0.139-2.642 0.209s-1.669 0.070-2.503 0.070-3.337-0.070-5.006-0.070"></path>
<path stroke-width="2.7817" stroke-miterlimit="10" stroke-linecap="butt" stroke-linejoin="round" d="M21.099 9.313c0.070 0.487-0.070 1.043-0.417 1.391-1.043 0.904-2.155 1.739-3.337 2.364-0.348 0.209-0.765 0.348-1.112 0.348-0.139 0-0.695 0.278-0.765 0.278-0.487 0.139-0.348 0.070-0.765 0.139s-0.904 0-1.321 0.070c-0.139 0-0.278 0.070-0.417 0.070-0.348 0.069-0.626 0.069-0.973 0.139-0.069 0-0.139 0-0.209 0.070-0.069 0-0.139 0.069-0.209 0.139-0.069 0-0.209 0-0.278 0s-0.209 0.070-0.278 0.139c0 0 0.069-0.069 0.069-0.139-2.294 0.556-4.519 0.695-6.813 1.043-0.487 0.070-1.39-0.278-1.877-0.209-1.251 2.295 0.626 1.391 1.182 1.182 0.139-0.070 0.278 0.070 0.417 0.209 0.070 0.070-0.487-0.139 0.556 0.209 0.139 0 0.626-0.278 0.765-0.278 0.556 0.209 0.278 0.556 0.834 0.765 0.348 0.139 1.251 0.556 1.599 0.556 1.877 0.209 3.546 0.278 5.284 0.904 0.904 0.348 1.738 0.417 2.642 0.695 0.209 0.070 0.417 0.139 0.695 0.139 0.139 0 0.278 0 0.417 0 1.738-0.139 3.128 1.252 4.797 1.669"></path>
</symbol>
<symbol id="icon-star" viewBox="0 0 30 32">
<path d="M29.116 15.929c0.225-0.047 0.022-0.054-0.195-0.058 0.316-0.033 0.64-0.066 0.971-0.099-7.301-0.731-10.623-1.379-12.355-4.54 0.017 0.030 0.034 0.062 0.054 0.090l0.006-0.018c-0.098-0.172-0.17-0.296-0.108-0.163-0.081-0.153-0.159-0.311-0.232-0.475 0.074 0.136 0.108 0.152 0.113 0.098-0.005-0.112-0.023-0.223-0.054-0.33-0.007-0.003-0.014-0.004-0.036-0.044-0.011-0.020-0.028-0.049-0.050-0.094s-0.047-0.108-0.084-0.187c0.023 0.121 0.271 0.731 0.132 0.466-0.049-0.108-0.082-0.183-0.108-0.239-0.017-0.041-0.031-0.084-0.043-0.127-0.019-0.063-0.024-0.099-0.058-0.207 0.018 0.095-0.044-0.041-0.108-0.189-0.035-0.091-0.077-0.178-0.127-0.261-0.278-0.901-0.493-1.82-0.643-2.751 0.006 0.017 0.010 0.014 0.008-0.022l-0.047-0.258c-0.012-0.241 0.118 0.481 0.077 0.152 0.078 0.343 0.176 0.726 0.264 1.211l-0.020 0.098c-0.015-0.154-0.043-0.306-0.083-0.455 0.027 0.1 0.054 0.287 0.086 0.477 0.022 0.166 0.064 0.329 0.125 0.484-0.021-0.114-0.036-0.228-0.054-0.342 0.097 0.341 0.242 0.754 0.359 1.175-0.018-0.2-0.036-0.095-0.075-0.404 0.004 0.068-0.012 0.034-0.037-0.047s-0.061-0.212-0.091-0.337c-0.065-0.251-0.113-0.484-0.095-0.268-0.012-0.149-0.033-0.296-0.061-0.443-0.033-0.17-0.057-0.342-0.072-0.515-0.009 0.014 0 0.149-0.058-0.213-0.006-0.016-0.018-0.054-0.026-0.078 0-0.011 0-0.015-0.003-0.024v0.020c-0.004-0.015-0.006-0.017 0 0.008 0.008 0.062 0.013 0.124 0.013 0.187-0.045-0.153-0.081-0.308-0.108-0.465-0.036-0.19-0.073-0.38-0.094-0.479-0.027-0.217 0.028 0.088 0.024-0.031l-0.068-0.289c0.024-0.033-0.034-0.578 0.054-0.073l-0.063-0.457c-0.021-0.271-0.061-0.642-0.101-0.868-0.020-0.217-0.095-0.542-0.052-0.357l-0.098-0.718 0.007-0.007c-0.072-0.711-0.195-1.46-0.217-2.278-0.029-0.239-0.060-0.488-0.086-0.888l0.018-0.080c-0.006-0.054-0.011-0.112-0.016-0.18h-0.355c-0.030 0.322-0.087 0.765-0.076 0.877-0.094 0.325-0.149 1.492-0.217 2.031l0.030 0.023c-0.040 0.372-0.068 0.729-0.108 1.193l0.033-0.026c-0.022 0.4-0.142 1.020-0.228 1.646 0.005-0.106 0.019-0.211 0.043-0.314-0.167 0.74-0.19 1.583-0.377 2.248-0.019 0.137-0.048 0.272-0.088 0.405 0.004-0.016 0.006-0.029 0.008-0.041-0.004 0.017-0.010 0.042-0.017 0.068l-0.068 0.228c0.023-0.068 0.043-0.134 0.060-0.191-0.029 0.129-0.071 0.325-0.113 0.515l-0.052 0.074c-0.004 0.015-0.008 0.028-0.011 0.043-0.061 0.183-0.027 0.152 0.023 0.058-0.022 0.096-0.037 0.185-0.051 0.254-0.091 0.139-0.132 0.498-0.257 0.685-0.013 0.069-0.032 0.137-0.054 0.203-0.033 0.094-0.072 0.21-0.115 0.325-0.072 0.194-0.149 0.383-0.169 0.471-0.049 0.098-0.103 0.192-0.151 0.287s-0.101 0.187-0.143 0.277l-0.084 0.064c-0.067 0.146-0.142 0.289-0.22 0.431-0.060 0.076-0.125 0.148-0.197 0.213-0.029 0.018-0.007-0.018 0.066-0.145-0.113 0.177-0.239 0.346-0.376 0.505-0.090 0.098-0.163 0.189-0.38 0.412l0.005-0.036c-0.168 0.168-0.352 0.32-0.548 0.453-0.108 0.065-0.297 0.181-0.539 0.319-0.289 0.159-0.585 0.303-0.889 0.431-0.354 0.148-0.717 0.277-1.085 0.387-0.373 0.111-0.744 0.2-1.073 0.268 0.137 0.003-0.018 0.031-0.212 0.065-0.152 0.015-0.302 0.049-0.446 0.101-0.081 0-0.267 0.027-0.054-0.028-0.671 0.148-1.022 0.163-1.484 0.279-0.081-0.003 0.142-0.046 0.069-0.044-0.094 0.023-0.19 0.039-0.286 0.048-0.072 0 0.098-0.027 0.204-0.052-0.697 0.108-0.759 0.163-0.803 0.214-0.266 0.013-0.53 0.052-0.789 0.114-0.126 0-0.335 0.011 0.101-0.048l-0.847 0.095c-0.228 0.017-0.455 0.049-0.678 0.099-0.079 0-0.344 0.034-0.409 0.046-0.553 0.054-0.602 0.058-1.145 0.116l0.151-0.009c-0.037 0.012-0.075 0.021-0.113 0.028l-0.113-0.017v0.034h-0.016l-0.465 0.054 0.465 0.041h0.016v0.035l0.205-0.011c0.119 0.015 0.254 0.033 0.421 0.048l-0.012 0.003c0.999 0.137 0.434 0.029 1.42 0.174l-0.050-0.033c0.101-0.049 0.871 0.134 1.447 0.187l-0.204-0.042c0.317 0.020 0.861 0.194 1.17 0.249 0.068 0.015-0.108-0.008-0.204-0.018 0.405 0.076 0.434 0.073 0.434 0.059s-0.018-0.037 0.286 0.006c0.108 0.037-0.154 0.023 0.253 0.095 0.1 0.024 0.399 0.059 0.739 0.108 0.335 0.046 0.666 0.115 0.991 0.206-0.116-0.042-0.232-0.084 0.049-0.031 0.108 0.026 0.229 0.059 0.361 0.096s0.271 0.081 0.405 0.127l0.396 0.128c0.125 0.038 0.239 0.073 0.335 0.094 0.049 0.022 0.068 0.033 0.068 0.037 0.079 0.024 0.18 0.062 0.292 0.101s0.23 0.089 0.347 0.134c0.117 0.045 0.227 0.093 0.319 0.136s0.17 0.073 0.217 0.091c0.113 0.093 0.234 0.175 0.361 0.246 0.171 0.104 0.372 0.233 0.559 0.365 0.372 0.266 0.671 0.555 0.63 0.582 0.222 0.225 0.425 0.468 0.608 0.726l-0.023-0.015c0.169 0.248 0.276 0.419 0.359 0.55 0.041 0.066 0.078 0.12 0.108 0.17s0.061 0.094 0.091 0.139c0.054 0.126 0 0.039-0.008 0.031 0.048 0.098 0.086 0.186 0.121 0.266s0.065 0.15 0.092 0.217c0.027 0.067 0.052 0.124 0.075 0.18s0.043 0.108 0.064 0.159c0.084 0.204 0.163 0.392 0.298 0.732l-0.010 0.080c0.032 0.092 0.060 0.185 0.083 0.279 0.034 0.136 0.076 0.306 0.117 0.498 0.086 0.383 0.18 0.848 0.274 1.26-0.015-0.028-0.025-0.058-0.031-0.089 0.106 0.502 0.185 1.009 0.238 1.519 0.023 0.363 0.086 0.723 0.188 1.073l0.102 0.621c-0.085-0.808 0.064 0.116 0.044-0.217 0.045 0.317 0.057 0.824 0.009 0.434v-0.062c-0.039-0.069-0.016 0.182 0.010 0.449 0.029 0.178 0.040 0.358 0.033 0.539 0.095 0.922 0.166 1.835 0.234 2.729-0.010 0.074-0.020 0.148-0.030 0.222h0.006c0.016-0.079 0.022 0.030 0.039-0.015v0.034h0.248v-0.020c0.009-0.090 0.017-0.178 0.026-0.268 0.012 0.159 0.016 0.238 0.014 0.268h0.006c-0.004-0.095-0.009-0.191-0.018-0.286 0.043-0.459 0.086-0.912 0.129-1.359l-0.062 0.168 0.051-0.52c0.024-0.136 0.054-0.181 0.016 0.19 0.033-0.21 0.043-0.423 0.029-0.635 0.091-0.725 0.026 0.288 0.049 0.065l0.027-0.303-0.012 0.068c-0.006-0.239 0.006-0.478 0.035-0.715 0.039-0.281 0.044-0.142 0.057-0.253 0 0 0.004-0.009 0.008-0.034s0.007-0.069 0.013-0.136l0.079-0.651-0.067 0.258c0.015-0.291 0.076-0.614-0.003-0.317 0.060-0.217 0.139-0.827 0.226-1.41s0.183-1.148 0.217-1.282c0.057-0.434 0.141-0.864 0.253-1.287-0.037 0.119-0.097 0.184 0.013-0.234 0.022 0.085 0.082-0.105 0.158-0.355 0.068-0.236 0.153-0.466 0.255-0.689-0.019 0.031-0.011-0.005 0.012-0.080 0.014-0.044 0.032-0.101 0.054-0.163s0.048-0.131 0.073-0.197c0.101-0.266 0.203-0.51 0.079-0.293 0.154-0.33 0.038-0.010 0.171-0.253 0.187-0.434 0.43-0.842 0.721-1.214 0.33-0.421 0.711-0.798 1.135-1.124 0.008-0.018-0.152 0.084 0.027-0.072 0.171-0.104 0.346-0.202 0.526-0.29 0.065-0.044 0.128-0.092 0.189-0.142 0.103-0.073 0.217-0.132 0.336-0.174-0.054 0.018-0.142 0.047-0.008-0.024 1.060-0.471 2.17-0.819 3.308-1.036 1.162-0.237 2.336-0.403 3.518-0.497-0.319 0.020-0.108-0.009 0.133-0.038-0.158 0.014 0-0.025-0.033-0.035 0.329-0.027 0.657-0.051 0.986-0.074 0.199-0.041 0.401-0.069 0.603-0.085 0.189-0.013 0.377-0.039 0.562-0.079-0.061 0.009-0.123 0.016-0.171 0.022l-0.149 0.011zM17.238 10.63c-0.082-0.185-0.161-0.379-0.235-0.579 0.064 0.136 0.158 0.365 0.235 0.579zM16.967 9.946h-0.003c-0.008-0.022-0.016-0.043-0.023-0.066l0.027 0.066zM16.080 5.065l-0.003-0.012c-0.019-0.254-0.013-0.164 0.004 0.012l-0.001-0.001zM15.767 2.915c0.072 0.566-0.010 0.248 0.009 0.347 0.026 0.323 0.074 0.643 0.144 0.959 0.060 0.271 0.099 0.547 0.117 0.824 0.012 0.353-0.066 0.023-0.080 0.103-0.072-0.459-0.067-0.71-0.104-1.022l0.028 0.387c-0.039-0.206-0.066-0.413-0.082-0.622 0 0.036 0.003 0.091 0.009 0.16-0.077-0.687-0.151-1.417-0.223-2.191 0.053 0.207 0.119 0.59 0.183 1.056l-0.001-0.001zM15.343 0.671c0.008 0.018 0.024-0.033 0.034-0.073-0.013 0.155-0.027 0.309-0.040 0.462-0.002-0.124 0-0.266 0.006-0.388l-0.001-0.001zM15.167 2.72c0.004-0.020 0.011-0.040 0.021-0.058-0.018 0.189-0.037 0.375-0.054 0.559l-0.051 0.007 0.043 0.071c-0.020 0.185-0.039 0.367-0.059 0.546-0.038 0-0.068-0.037-0.075-0.108 0.008-0.055 0.133-0.835 0.175-1.016zM14.657 6.405l0.054-0.504c0.003 0.136 0.003 0.376-0.005 0.644-0.047 0.289-0.096 0.567-0.147 0.834 0.007-0.247 0.022-0.542 0.057-0.85l0.041-0.123zM13.439 10.815c-0.003 0.012-0.004 0.024-0.005 0.036-0.009 0.004-0.035 0.053 0.005-0.035l-0.001-0.001zM12.815 11.918c-0.009 0.035 0.019 0.031 0.054 0.023-0.083 0.115-0.168 0.226-0.257 0.333 0.070-0.117 0.14-0.236 0.203-0.356l-0.001-0.001zM4.666 15.307c0.085-0.006 0.017 0.017-0.095 0.047 0.047-0.009 0.092-0.018 0.126-0.026 0.103-0.009 0.142-0.007 0.142 0l-0.35 0.047 0.081-0.021-0.175 0.034-0.144 0.018c-0.115 0.004-0.213 0.007-0.283 0.010 0.234-0.034 0.467-0.072 0.699-0.108l-0.001-0.001zM15.874 27.944c0.016-0.233 0.018-0.167 0.020-0.102l-0.020 0.102z"></path>
</symbol>
<symbol id="icon-star-full" viewBox="0 0 32 32">
<path d="M32 12.408l-11.056-1.607-4.944-10.018-4.944 10.018-11.056 1.607 8 7.798-1.889 11.011 9.889-5.199 9.889 5.199-1.889-11.011 8-7.798z"></path>
</symbol>
<symbol id="icon-instagram" viewBox="0 0 32 32">
<path d="M16 2.881c4.275 0 4.781 0.019 6.462 0.094 1.563 0.069 2.406 0.331 2.969 0.55 0.744 0.288 1.281 0.638 1.837 1.194 0.563 0.563 0.906 1.094 1.2 1.838 0.219 0.563 0.481 1.412 0.55 2.969 0.075 1.688 0.094 2.194 0.094 6.463s-0.019 4.781-0.094 6.463c-0.069 1.563-0.331 2.406-0.55 2.969-0.288 0.744-0.637 1.281-1.194 1.837-0.563 0.563-1.094 0.906-1.837 1.2-0.563 0.219-1.413 0.481-2.969 0.55-1.688 0.075-2.194 0.094-6.463 0.094s-4.781-0.019-6.463-0.094c-1.563-0.069-2.406-0.331-2.969-0.55-0.744-0.288-1.281-0.637-1.838-1.194-0.563-0.563-0.906-1.094-1.2-1.837-0.219-0.563-0.481-1.413-0.55-2.969-0.075-1.688-0.094-2.194-0.094-6.463s0.019-4.781 0.094-6.463c0.069-1.563 0.331-2.406 0.55-2.969 0.288-0.744 0.638-1.281 1.194-1.838 0.563-0.563 1.094-0.906 1.838-1.2 0.563-0.219 1.412-0.481 2.969-0.55 1.681-0.075 2.188-0.094 6.463-0.094zM16 0c-4.344 0-4.887 0.019-6.594 0.094-1.7 0.075-2.869 0.35-3.881 0.744-1.056 0.412-1.95 0.956-2.837 1.85-0.894 0.888-1.438 1.781-1.85 2.831-0.394 1.019-0.669 2.181-0.744 3.881-0.075 1.713-0.094 2.256-0.094 6.6s0.019 4.887 0.094 6.594c0.075 1.7 0.35 2.869 0.744 3.881 0.413 1.056 0.956 1.95 1.85 2.837 0.887 0.887 1.781 1.438 2.831 1.844 1.019 0.394 2.181 0.669 3.881 0.744 1.706 0.075 2.25 0.094 6.594 0.094s4.888-0.019 6.594-0.094c1.7-0.075 2.869-0.35 3.881-0.744 1.050-0.406 1.944-0.956 2.831-1.844s1.438-1.781 1.844-2.831c0.394-1.019 0.669-2.181 0.744-3.881 0.075-1.706 0.094-2.25 0.094-6.594s-0.019-4.887-0.094-6.594c-0.075-1.7-0.35-2.869-0.744-3.881-0.394-1.063-0.938-1.956-1.831-2.844-0.887-0.887-1.781-1.438-2.831-1.844-1.019-0.394-2.181-0.669-3.881-0.744-1.712-0.081-2.256-0.1-6.6-0.1v0z"></path>
<path d="M16 7.781c-4.537 0-8.219 3.681-8.219 8.219s3.681 8.219 8.219 8.219 8.219-3.681 8.219-8.219c0-4.537-3.681-8.219-8.219-8.219zM16 21.331c-2.944 0-5.331-2.387-5.331-5.331s2.387-5.331 5.331-5.331c2.944 0 5.331 2.387 5.331 5.331s-2.387 5.331-5.331 5.331z"></path>
<path d="M26.462 7.456c0 1.060-0.859 1.919-1.919 1.919s-1.919-0.859-1.919-1.919c0-1.060 0.859-1.919 1.919-1.919s1.919 0.859 1.919 1.919z"></path>
</symbol>
</defs>
</svg>
