<!-- Generated by IcoMoon.io -->
<svg version="1.1" xmlns="http://www.w3.org/2000/svg" width="37" height="32" viewBox="0 0 37 32">
<path fill="none" stroke="#000" stroke-width="2.7817" stroke-miterlimit="10" stroke-linecap="butt" stroke-linejoin="round" d="M0.81 15.085c0.556 1.252 3.198 1.878 4.241 1.947 0.487 0.070 1.112-0.278 1.599-0.209 0.278 0.070 0.417 0.556 0.765 0.487 0.278 0 0.487-0.070 0.765-0.139 1.112-0.278 2.364-0.417 3.546-0.278 0.626 0.070 1.182-0.278 1.738-0.417 0.417-0.070 0.973 0.139 1.46 0.070 0.765-0.139 1.529 0.070 2.225 0 1.182-0.070 2.294-0.070 3.476-0.139 0.904-0.070 1.808 0.139 2.642 0.209s1.669 0.070 2.503 0.070 3.337-0.070 5.005-0.070"></path>
<path fill="none" stroke="#000" stroke-width="2.7817" stroke-miterlimit="10" stroke-linecap="butt" stroke-linejoin="round" d="M15.618 9.313c-0.069 0.487 0.069 1.043 0.417 1.391 1.043 0.904 2.155 1.739 3.337 2.364 0.348 0.209 0.765 0.348 1.112 0.348 0.139 0 0.695 0.278 0.765 0.278 0.487 0.139 0.348 0.070 0.765 0.139s0.904 0 1.321 0.070c0.139 0 0.278 0.070 0.417 0.070 0.348 0.069 0.626 0.069 0.973 0.139 0.070 0 0.139 0 0.209 0.070 0.070 0 0.139 0.069 0.209 0.139 0.070 0 0.209 0 0.278 0s0.209 0.070 0.278 0.139c0 0-0.070-0.069-0.070-0.139 2.294 0.556 4.519 0.695 6.813 1.043 0.487 0.070 1.39-0.278 1.877-0.209 1.251 2.295-0.626 1.391-1.182 1.182-0.139-0.070-0.278 0.070-0.417 0.209-0.070 0.070 0.487-0.139-0.556 0.209-0.139 0-0.626-0.278-0.765-0.278-0.556 0.209-0.278 0.556-0.834 0.765-0.348 0.139-1.251 0.556-1.599 0.556-1.877 0.209-3.546 0.278-5.284 0.904-0.904 0.348-1.738 0.417-2.642 0.695-0.209 0.070-0.417 0.139-0.695 0.139-0.139 0-0.278 0-0.417 0-1.738-0.139-3.128 1.252-4.797 1.669"></path>
</svg>
